<svg
  width="1920"
  height="1080"
  viewBox="0 0 1920 1080"
  fill="none"
  xmlns="http://www.w3.org/2000/svg"
>
  <g opacity="0.22">

    <path
      d="M0 180C260 80 420 320 760 220C1040 140 1240 40 1560 160C1760 240 1860 320 1920 260"
      stroke="#D9485F"
      stroke-width="2"
    />

    <path
      d="M0 360C180 500 420 240 720 320C980 400 1240 620 1520 520C1760 420 1840 260 1920 220"
      stroke="#A83EF0"
      stroke-width="2"
    />

    <path
      d="M0 560C260 480 520 760 820 660C1120 560 1260 380 1540 520C1760 640 1840 760 1920 700"
      stroke="#E7C57A"
      stroke-width="2"
    />

    <path
      d="M0 760C240 660 480 920 760 860C1040 800 1260 620 1520 740C1760 860 1860 960 1920 920"
      stroke="#D9485F"
      stroke-width="2"
    />

    <path
      d="M0 940C260 860 520 1080 820 1000C1100 920 1320 760 1580 860C1760 940 1840 1040 1920 1000"
      stroke="#A83EF0"
      stroke-width="2"
    />

  </g>
</svg>